<?xml version="1.0" standalone="no"?>
<!DOCTYPE svg PUBLIC "-//W3C//DTD SVG 20010904//EN"
 "http://www.w3.org/TR/2001/REC-SVG-20010904/DTD/svg10.dtd">
<svg version="1.0" xmlns="http://www.w3.org/2000/svg"
 width="500.000000pt" height="500.000000pt" viewBox="0 0 500.000000 500.000000"
 preserveAspectRatio="xMidYMid meet">

<g transform="translate(0.000000,500.000000) scale(0.100000,-0.100000)"
fill="#aaa" stroke="none">
<path d="M1595 4590 c-16 -4 -65 -8 -107 -9 -74 -1 -161 -15 -203 -31 -11 -5
-49 -14 -85 -20 -36 -6 -75 -18 -87 -26 -12 -8 -29 -14 -37 -14 -9 0 -31 -9
-51 -20 -20 -11 -44 -20 -55 -20 -11 0 -20 -3 -20 -8 0 -4 -13 -13 -28 -20
-16 -6 -37 -20 -48 -30 -10 -9 -32 -24 -49 -32 -92 -45 -304 -226 -376 -320
-10 -14 -42 -56 -71 -95 -54 -70 -178 -307 -178 -337 0 -9 -4 -20 -10 -23 -5
-3 -10 -14 -10 -24 0 -10 -7 -32 -15 -47 -8 -16 -15 -39 -15 -51 0 -28 -19
-111 -33 -140 -14 -30 -1 -43 43 -43 21 0 61 -5 89 -12 28 -6 53 -9 56 -6 3 3
8 23 11 44 5 43 41 169 55 196 5 10 9 24 9 31 0 8 20 55 45 106 25 50 45 94
45 97 0 11 123 174 131 174 5 0 9 6 9 13 0 13 149 162 210 209 19 16 47 34 63
40 15 7 27 16 27 20 0 5 6 8 14 8 8 0 16 4 18 8 10 23 290 142 335 142 12 0
25 5 28 10 3 6 22 10 41 10 20 0 45 5 56 11 14 8 90 12 214 12 l192 0 5 61 c2
34 7 70 11 81 11 35 -5 44 -92 46 -46 2 -85 6 -88 11 -6 9 -6 9 -49 -2z"/>
<path d="M2950 4160 c-19 -5 -102 -16 -185 -26 -82 -9 -156 -20 -163 -24 -8
-4 -49 -84 -92 -179 l-78 -173 28 -76 c16 -43 33 -90 39 -105 6 -16 11 -32 11
-37 0 -4 -54 -41 -120 -81 -248 -153 -232 -139 -392 -339 -81 -102 -148 -188
-148 -191 0 -7 -209 -390 -221 -405 -4 -5 -77 -147 -162 -315 -85 -167 -179
-351 -209 -409 -57 -108 -147 -282 -308 -595 -131 -254 -246 -478 -291 -563
-49 -93 -54 -163 -14 -206 l25 -27 207 1 208 2 3 -141 3 -141 349 0 350 0 0
75 c0 53 4 75 13 75 6 1 77 2 157 3 l145 2 0 64 0 64 -143 -2 c-99 -2 -148 1
-158 10 -17 14 -19 105 -3 115 7 4 76 6 154 5 159 -3 155 -4 155 69 0 67 5 65
-160 62 -169 -4 -157 -11 -162 88 l-3 45 -345 0 -345 0 -3 -138 -3 -137 -179
0 c-99 0 -180 2 -180 5 0 2 13 26 28 52 16 26 57 104 92 173 90 177 128 249
149 279 10 14 62 116 117 226 54 110 145 288 202 395 58 107 160 303 227 436
125 245 146 285 155 294 5 5 11 17 112 208 97 185 178 309 307 472 118 149
126 157 219 213 53 33 109 68 124 78 14 10 29 19 32 19 3 0 43 24 90 54 l84
55 -48 132 -49 132 50 111 c27 61 53 118 58 126 5 9 30 17 67 22 32 3 100 11
149 16 60 7 94 7 102 0 7 -6 37 -47 68 -92 l55 -81 -26 -70 c-14 -38 -30 -81
-34 -95 -5 -14 -22 -63 -39 -110 -17 -46 -29 -90 -27 -97 4 -8 67 -13 238 -15
l233 -4 123 -42 c68 -23 128 -39 135 -35 6 4 72 59 147 123 74 63 142 121 150
127 9 7 51 19 94 28 l79 16 26 -24 c14 -13 41 -37 60 -54 l33 -30 -8 -73 c-6
-48 -14 -76 -24 -81 -8 -4 -54 -27 -102 -50 -49 -22 -88 -43 -88 -45 0 -3 93
-218 131 -301 10 -24 19 -45 19 -48 0 -3 9 -24 19 -48 27 -60 30 -71 51 -177
11 -52 28 -129 39 -170 30 -110 68 -267 81 -335 7 -33 16 -80 21 -105 4 -25
24 -130 44 -235 19 -104 42 -212 51 -240 8 -27 19 -81 24 -120 5 -38 16 -95
25 -125 8 -30 15 -67 15 -83 0 -15 4 -47 9 -70 5 -23 15 -69 21 -102 6 -33 20
-91 30 -130 10 -38 23 -97 29 -130 6 -33 18 -95 26 -137 8 -42 15 -82 15 -88
0 -7 -314 -9 -1017 -8 l-1018 3 0 90 0 90 712 3 711 2 50 55 c48 52 50 56 55
127 9 116 8 1242 -1 1256 -7 10 -256 12 -1213 10 l-1204 -3 -3 -585 c-2 -322
0 -631 3 -687 l7 -102 46 -35 45 -36 248 0 249 0 2 -192 3 -193 1238 -3 1237
-2 0 27 c0 16 -9 69 -19 118 -11 50 -27 131 -36 180 -16 89 -87 459 -170 880
-24 121 -56 283 -70 360 -15 77 -42 205 -62 285 -19 80 -47 210 -63 290 -40
201 -89 365 -154 516 -31 70 -56 133 -56 140 0 6 31 25 68 42 38 17 73 37 79
44 6 7 19 68 29 136 l18 123 -89 82 c-138 128 -126 121 -198 107 -202 -38
-186 -31 -339 -162 -109 -94 -144 -119 -161 -115 -12 3 -60 18 -107 33 -75 25
-103 29 -235 32 -149 3 -178 9 -158 34 9 11 76 191 89 238 2 8 -41 80 -95 160
-97 143 -99 145 -137 147 -21 1 -55 -2 -74 -7z m261 -2040 c215 -67 369 -284
369 -520 -1 -195 -91 -363 -253 -470 -92 -60 -170 -82 -302 -82 -181 -1 -299
45 -408 162 -68 71 -102 125 -138 217 -19 48 -23 78 -23 168 0 117 14 168 70
270 124 221 429 335 685 255z m549 -165 l34 -35 149 0 148 0 -3 -27 -3 -28
-154 -3 c-147 -2 -155 -4 -183 -27 -50 -42 -116 -28 -147 32 -17 34 -13 59 15
92 21 26 33 31 68 31 35 0 48 -6 76 -35z m330 -254 c0 -27 -2 -28 -65 -34 -78
-7 -124 0 -132 21 -11 28 27 42 114 42 l83 0 0 -29z m-325 -71 c17 -18 31 -20
172 -20 146 0 153 -1 153 -20 0 -19 -7 -20 -153 -20 -140 0 -154 -2 -170 -20
-34 -40 -97 -16 -97 37 0 56 59 82 95 43z m126 -156 c23 -22 34 -24 112 -24
l87 0 0 -30 0 -30 -92 0 c-81 0 -95 -3 -115 -22 -65 -61 -169 10 -131 90 27
55 89 63 139 16z m-1276 -709 l0 -90 -42 -3 -43 -3 0 96 0 96 43 -3 42 -3 0
-90z m-5 -170 c0 -11 -11 -15 -40 -15 -29 0 -40 4 -40 15 0 11 11 15 40 15 29
0 40 -4 40 -15z m2148 3 c-4 -10 -220 -14 -1026 -16 -904 -2 -1022 0 -1022 13
0 13 119 15 1026 15 816 0 1025 -3 1022 -12z"/>
<path d="M2935 2110 c-3 -5 -15 -10 -26 -10 -10 0 -27 -4 -37 -9 -9 -5 -48
-23 -86 -42 -226 -107 -351 -383 -272 -599 73 -202 175 -294 407 -369 44 -14
186 -15 194 -1 3 6 18 10 32 10 15 0 63 18 107 39 162 79 259 209 296 396 15
75 11 111 -26 235 -12 39 -53 111 -92 159 -41 50 -159 141 -184 141 -9 0 -19
4 -22 8 -3 5 -30 15 -61 22 -31 7 -58 17 -61 22 -7 12 -162 10 -169 -2z m189
-133 c66 -84 94 -143 77 -160 -11 -9 -14 -9 -18 1 -7 17 -23 15 -23 -4 0 -12
-6 -15 -24 -10 -14 3 -28 1 -31 -4 -9 -14 -35 7 -36 29 0 12 -2 11 -9 -4 -5
-13 -9 25 -9 102 -1 94 2 121 12 117 6 -3 34 -33 61 -67z m-257 5 c-23 -32
-51 -77 -61 -100 -17 -38 -23 -43 -45 -37 -20 5 -60 28 -90 52 -8 6 52 63 66
63 7 0 13 4 13 9 0 12 118 70 142 71 14 0 9 -13 -25 -58z m115 -54 c-4 -124
-16 -153 -46 -122 -14 14 -20 14 -26 4 -4 -7 -13 -9 -19 -6 -6 4 -9 12 -6 17
4 5 -2 6 -11 2 -13 -5 -16 -3 -11 10 3 8 1 17 -5 19 -7 3 -5 15 7 34 29 47
109 153 116 154 3 0 4 -51 1 -112z m237 87 c30 -11 67 -32 84 -47 16 -16 33
-28 37 -28 4 0 12 -6 18 -12 14 -18 -4 -62 -22 -55 -8 3 -17 0 -19 -7 -3 -7
-15 -16 -27 -19 -17 -4 -25 1 -38 25 -10 17 -36 60 -59 95 -43 63 -50 78 -35
71 4 -1 32 -12 61 -23z m-569 -180 c0 -8 6 -12 14 -9 7 3 16 -2 19 -10 4 -9
13 -13 22 -10 8 3 15 1 15 -5 0 -6 10 -11 21 -11 18 0 20 -4 15 -27 -4 -16
-10 -41 -13 -56 -3 -16 -12 -31 -19 -34 -8 -3 -14 -12 -14 -20 0 -12 -13 -14
-70 -11 -39 2 -70 -1 -70 -5 0 -5 -5 -5 -11 -1 -27 17 42 214 75 214 9 0 16
-7 16 -15z m803 -42 c26 -56 54 -151 46 -156 -2 -2 -41 -1 -87 2 -45 3 -82 2
-82 -2 0 -5 -5 -5 -11 -2 -6 4 -8 14 -4 23 3 8 -2 39 -10 69 -17 58 -14 76 12
66 11 -4 14 -3 9 5 -6 10 8 18 17 10 1 -2 13 7 27 20 37 35 54 28 83 -35z
m-200 -99 c1 -27 5 -51 9 -54 7 -5 -60 -4 -164 3 -21 1 -40 -2 -42 -8 -3 -5
-4 15 -3 45 l2 55 39 -3 c23 -2 42 1 46 8 4 7 24 12 44 13 20 1 36 6 36 11 0
6 7 3 16 -5 9 -10 16 -36 17 -65z m-343 44 c0 -6 16 -7 41 -3 40 7 42 6 36
-16 -4 -13 -7 -37 -7 -54 l0 -30 -85 3 c-96 4 -108 13 -96 72 5 29 12 36 36
40 37 7 75 1 75 -12z m-175 -107 c-9 -16 -25 -3 -18 15 4 10 9 12 15 6 6 -6 7
-15 3 -21z m-3 -103 c-9 -9 -12 -7 -12 12 0 19 3 21 12 12 9 -9 9 -15 0 -24z
m681 10 c63 -2 77 0 78 12 0 10 2 11 5 3 8 -19 -22 -127 -51 -183 -29 -57 -31
-57 -110 -14 -25 14 -45 31 -45 37 0 7 7 34 15 62 9 27 13 55 11 62 -7 17 5
48 13 35 3 -6 41 -12 84 -14z m-767 2 c48 0 64 -3 64 -14 0 -8 6 -16 13 -19
14 -5 37 -71 37 -106 0 -12 -6 -21 -15 -21 -8 0 -15 -4 -15 -10 0 -5 -6 -10
-12 -10 -7 0 -24 -9 -38 -20 -14 -11 -30 -20 -37 -20 -18 0 -62 81 -79 142
-19 71 -18 92 2 84 9 -3 45 -6 80 -6z m618 -20 c-22 -95 -40 -137 -51 -112 -2
6 -9 9 -14 6 -6 -3 -18 1 -28 10 -12 11 -33 15 -67 14 l-49 -3 -3 55 -3 55
110 0 110 0 -5 -25z m-284 -12 c0 -18 3 -43 6 -54 4 -17 0 -22 -20 -26 -14 -3
-26 -1 -26 3 0 14 -40 10 -56 -6 -8 -8 -21 -12 -29 -9 -8 4 -15 1 -15 -5 0 -6
-4 -11 -10 -11 -5 0 -10 9 -10 19 0 11 -4 22 -9 25 -11 7 -20 66 -14 84 4 8
32 12 94 12 l89 0 0 -32z m-30 -148 c0 -5 7 -10 15 -10 12 0 15 -16 15 -82 0
-46 3 -94 7 -108 l6 -25 -27 24 c-14 14 -26 30 -26 38 0 7 -4 13 -9 13 -11 0
-81 106 -81 123 0 8 18 19 43 24 57 14 57 14 57 3z m170 1 c0 -5 15 -8 34 -7
52 5 61 -5 40 -45 -20 -40 -93 -136 -123 -163 l-21 -19 1 119 c0 65 3 114 5
108 6 -13 44 -7 44 7 0 5 5 9 10 9 6 0 10 -4 10 -9z m-301 -85 c17 -30 44 -70
61 -90 17 -19 26 -37 21 -40 -12 -8 -41 3 -41 15 0 5 -11 9 -25 9 -14 0 -25 4
-25 10 0 5 -7 7 -15 4 -8 -4 -17 1 -21 10 -3 9 -12 16 -19 16 -15 0 -75 48
-75 60 0 14 54 44 58 32 6 -19 19 -14 25 8 8 32 23 23 56 -34z m502 28 c28
-14 49 -30 47 -36 -3 -7 -19 -19 -36 -27 -17 -9 -32 -21 -32 -27 0 -16 -34
-28 -38 -14 -2 6 -15 -2 -28 -17 -22 -26 -25 -26 -40 -11 -15 15 -14 19 13 60
16 23 35 55 42 71 8 15 16 27 18 27 2 0 26 -11 54 -26z m-138 -138 c3 -8 -1
-17 -10 -20 -20 -8 -25 -3 -17 18 8 20 20 21 27 2z"/>
<path d="M1523 4128 c-21 -3 -56 -9 -78 -13 -22 -4 -50 -8 -63 -10 -31 -4
-175 -55 -187 -66 -5 -5 -15 -9 -23 -9 -8 0 -44 -19 -81 -43 -36 -24 -79 -51
-95 -61 -83 -52 -233 -219 -297 -331 -53 -94 -108 -245 -124 -340 -4 -22 -7
-42 -8 -45 -2 -7 121 -29 165 -30 36 0 37 1 43 48 9 59 67 210 107 277 73 121
209 252 332 319 65 35 159 75 196 83 69 16 208 30 266 27 l71 -3 7 76 c4 42
11 84 17 94 6 12 5 20 -2 25 -15 9 -196 11 -246 2z"/>
<path d="M1525 3693 c-243 -54 -442 -225 -501 -433 -7 -25 -17 -60 -23 -78 -7
-25 -7 -34 2 -37 29 -8 188 -25 196 -21 5 3 12 26 15 50 14 92 137 234 241
281 68 30 146 47 191 43 44 -4 48 5 59 127 l7 75 -83 -1 c-46 -1 -93 -3 -104
-6z"/>
<path d="M1487 3299 c-37 -20 -78 -74 -90 -117 -11 -43 20 -118 64 -155 47
-41 93 -52 148 -37 51 13 87 43 111 91 25 48 25 85 1 142 -38 89 -144 124
-234 76z"/>
<path d="M2942 3094 c-23 -16 -52 -74 -52 -105 0 -20 75 -122 163 -221 59 -66
60 -69 54 -115 -6 -55 5 -83 34 -83 21 0 49 51 49 89 0 14 36 46 120 107 177
128 210 159 210 199 0 67 -10 70 -284 110 -137 19 -254 35 -260 35 -6 0 -22
-7 -34 -16z"/>
</g>
</svg>
