<?xml version="1.0" standalone="no"?>
<!DOCTYPE svg PUBLIC "-//W3C//DTD SVG 20010904//EN"
 "http://www.w3.org/TR/2001/REC-SVG-20010904/DTD/svg10.dtd">
<svg version="1.0" xmlns="http://www.w3.org/2000/svg"
 width="2246.000000pt" height="349.000000pt" viewBox="0 0 2246.000000 349.000000"
 preserveAspectRatio="xMidYMid meet">
<metadata>
Created by potrace 1.16, written by Peter Selinger 2001-2019
</metadata>
<g transform="translate(0.000000,349.000000) scale(0.100000,-0.100000)"
fill="#000000" stroke="none">
<path d="M0 1750 l0 -1740 2874 0 c2870 0 2874 0 2997 21 248 42 513 151 719
297 122 86 326 290 412 412 78 110 184 316 228 444 80 233 111 562 76 806 -42
287 -141 538 -306 773 -84 120 -289 324 -410 409 -207 146 -471 255 -719 297
-123 21 -127 21 -2997 21 l-2874 0 0 -1740z m5862 1412 c283 -65 507 -185 709
-380 175 -168 295 -357 368 -577 54 -164 74 -281 74 -450 1 -393 -142 -735
-422 -1016 -211 -210 -428 -329 -733 -401 l-93 -22 -2732 -3 -2733 -3 0 1440
0 1440 2733 -3 2732 -3 97 -22z"/>
<path d="M530 1750 l0 -1210 2553 0 c1705 0 2581 3 2637 10 275 34 512 150
711 349 254 253 376 589 348 953 -21 271 -132 521 -317 719 -162 173 -357 289
-587 352 l-120 32 -2612 3 -2613 2 0 -1210z m5285 873 c324 -105 551 -338 637
-655 32 -118 32 -317 -1 -437 -44 -164 -121 -298 -238 -414 -117 -115 -221
-179 -383 -233 l-85 -29 -2452 -3 -2453 -2 0 900 0 900 2453 -2 2452 -3 70
-22z"/>
<path d="M1070 1750 l0 -670 2298 0 c2255 0 2300 0 2376 20 120 30 209 82 302
175 141 140 199 278 199 475 0 197 -58 335 -199 475 -93 93 -182 145 -302 175
-76 20 -121 20 -2376 20 l-2298 0 0 -670z m4652 333 c82 -39 145 -100 184
-179 26 -53 29 -69 29 -154 0 -84 -3 -102 -28 -152 -39 -79 -104 -143 -185
-181 l-67 -32 -2142 -3 -2143 -2 0 370 0 370 2143 -2 2142 -3 67 -32z"/>
<path d="M1610 1750 l0 -140 1990 0 c1801 0 1993 2 2030 16 98 39 109 178 19
242 -22 16 -163 17 -2031 20 l-2008 2 0 -140z"/>
<path d="M7660 2608 c0 -530 4 -931 11 -1002 68 -781 616 -1399 1390 -1568 92
-20 132 -22 349 -22 274 0 352 11 559 80 551 184 988 649 1131 1204 55 211 53
174 57 1218 l4 972 -155 0 -155 0 -4 -972 c-3 -1079 1 -1004 -72 -1225 -250
-753 -1084 -1164 -1832 -902 -483 169 -824 556 -945 1072 -22 90 -22 110 -25
1060 l-4 967 -154 0 -155 0 0 -882z"/>
<path d="M8200 2578 c0 -1016 0 -1021 66 -1218 168 -506 670 -846 1204 -817
505 28 931 351 1090 825 59 178 60 188 60 1200 l0 922 -150 0 -149 0 -4 -932
c-3 -925 -3 -934 -25 -1016 -109 -412 -466 -692 -882 -692 -242 0 -457 89
-630 260 -134 133 -218 284 -254 462 -14 67 -16 196 -16 998 l0 920 -155 0
-155 0 0 -912z"/>
<path d="M8742 2548 l3 -943 27 -73 c37 -101 82 -174 153 -247 74 -77 153
-128 259 -168 77 -29 89 -31 226 -31 133 -1 151 1 218 26 107 39 177 83 263
168 59 59 85 95 117 160 81 164 76 94 80 1128 l3 922 -155 0 -155 0 -3 -913
-3 -912 -33 -67 c-78 -159 -251 -245 -411 -204 -121 31 -219 114 -263 224
l-23 57 -3 908 -3 907 -150 0 -149 0 2 -942z"/>
<path d="M9270 2618 c0 -565 4 -886 10 -910 22 -76 115 -117 187 -81 20 10 46
31 57 46 21 28 21 37 24 923 l2 894 -140 0 -140 0 0 -872z"/>
<path d="M18900 3320 l0 -120 -225 0 -225 0 0 -115 0 -115 85 0 86 0 -25 -42
c-69 -120 -75 -282 -14 -410 125 -262 433 -362 692 -225 234 124 326 434 190
640 l-24 37 90 0 90 0 0 115 0 115 -225 0 -225 0 0 120 0 120 -135 0 -135 0 0
-120z m226 -389 c49 -23 107 -88 122 -140 43 -143 -28 -283 -162 -318 -64 -17
-117 -7 -175 31 -67 45 -100 111 -101 199 0 78 14 118 61 172 63 72 169 95
255 56z"/>
<path d="M13060 2885 l0 -465 -369 0 -370 0 -15 22 c-14 19 -16 64 -16 285 l0
263 290 0 290 0 0 120 0 120 -425 0 -425 0 0 -382 c0 -211 5 -414 10 -452 14
-96 43 -144 107 -179 74 -40 161 -47 571 -47 l352 0 0 -290 0 -290 135 0 135
0 0 480 0 480 110 0 110 0 0 -490 0 -490 135 0 135 0 0 890 0 890 -135 0 -135
0 0 -275 0 -275 -110 0 -110 0 0 275 0 275 -135 0 -135 0 0 -465z"/>
<path d="M15620 3130 l0 -220 -270 0 -270 0 0 -125 0 -125 270 0 270 0 0 -70
0 -70 -543 0 c-409 0 -546 3 -555 12 -9 9 -12 82 -12 265 l0 253 340 0 340 0
0 120 0 120 -476 0 -475 0 3 -417 c3 -377 5 -422 21 -458 36 -79 92 -117 198
-135 39 -6 283 -10 612 -10 l547 0 0 -85 0 -85 135 0 135 0 0 625 0 625 -135
0 -135 0 0 -220z"/>
<path d="M17380 2885 l0 -465 -368 0 c-273 0 -371 3 -380 12 -9 9 -12 86 -12
285 l0 273 285 0 285 0 0 120 0 120 -420 0 -420 0 0 -423 c0 -462 3 -494 56
-551 70 -74 150 -85 617 -86 l357 0 0 -290 0 -290 135 0 135 0 0 480 0 480
110 0 110 0 0 -490 0 -490 135 0 135 0 0 890 0 890 -135 0 -135 0 0 -275 0
-275 -110 0 -110 0 0 275 0 275 -135 0 -135 0 0 -465z"/>
<path d="M19860 2725 l0 -625 135 0 135 0 0 280 0 280 175 0 175 0 0 120 0
120 -175 0 -175 0 0 225 0 225 -135 0 -135 0 0 -625z"/>
<path d="M20850 3120 l0 -120 535 0 535 0 0 -410 0 -410 135 0 135 0 0 530 0
530 -670 0 -670 0 0 -120z"/>
<path d="M21020 2280 l0 -280 -225 0 -225 0 0 -120 0 -120 945 0 945 0 0 120
0 120 -360 0 -360 0 0 280 0 280 -135 0 -135 0 0 -280 0 -280 -95 0 -95 0 0
280 0 280 -130 0 -130 0 0 -280z"/>
<path d="M14500 1885 l0 -125 560 0 560 0 0 -320 0 -320 135 0 135 0 0 445 0
445 -695 0 -695 0 0 -125z"/>
<path d="M18760 1885 l0 -125 560 0 560 0 0 -320 0 -320 135 0 135 0 0 445 0
445 -695 0 -695 0 0 -125z"/>
<path d="M20478 916 c-112 -41 -169 -137 -155 -258 9 -72 43 -122 146 -217
128 -117 149 -165 93 -221 -47 -46 -121 -48 -224 -5 -16 6 -18 0 -18 -64 0
-88 8 -93 138 -99 106 -5 161 10 217 60 65 57 91 199 51 278 -10 19 -70 87
-132 151 -107 108 -114 118 -114 155 1 42 13 64 47 82 30 17 107 15 150 -3 19
-8 37 -15 39 -15 2 0 4 31 4 68 0 65 -1 69 -27 81 -43 20 -171 24 -215 7z"/>
<path d="M12160 485 l0 -425 145 0 c190 0 238 11 292 64 66 67 78 120 78 361
0 168 -3 210 -19 264 -23 76 -74 134 -133 150 -21 6 -111 11 -200 11 l-163 0
0 -425z m313 275 c37 -30 50 -101 50 -280 -1 -161 -10 -222 -42 -261 -16 -20
-30 -24 -95 -27 l-76 -4 0 296 0 296 69 0 c53 0 74 -4 94 -20z"/>
<path d="M13005 898 c-11 -28 -215 -812 -215 -824 0 -11 19 -14 75 -14 l74 0
10 37 c6 20 16 60 22 90 l12 53 102 0 102 0 12 -53 c6 -30 16 -70 22 -90 l10
-37 81 0 c60 0 79 3 76 13 -3 6 -54 198 -113 425 l-108 412 -79 0 c-54 0 -80
-4 -83 -12z m115 -357 c17 -79 34 -150 37 -157 4 -11 -10 -14 -72 -14 -68 0
-76 2 -71 18 15 50 66 269 66 286 0 39 9 8 40 -133z"/>
<path d="M13520 485 l0 -425 215 0 215 0 0 65 0 65 -135 0 -135 0 0 125 0 125
110 0 110 0 0 60 0 60 -110 0 -110 0 0 110 0 110 135 0 135 0 0 65 0 65 -215
0 -215 0 0 -425z"/>
<path d="M14140 484 l0 -426 173 4 c157 3 176 5 220 27 103 51 131 147 124
436 -5 218 -20 279 -82 334 -50 43 -90 51 -272 51 l-163 0 0 -426z m310 286
c10 -5 27 -31 37 -57 15 -40 18 -77 18 -223 -1 -263 -15 -292 -141 -298 l-74
-4 0 296 0 296 71 0 c39 0 79 -4 89 -10z"/>
<path d="M14852 568 c4 -358 6 -378 51 -442 11 -15 43 -39 71 -52 42 -20 67
-24 147 -24 123 0 184 27 227 98 l27 47 3 358 3 357 -76 0 -75 0 0 -320 c0
-359 -3 -379 -60 -399 -18 -6 -44 -11 -57 -11 -32 0 -80 26 -93 49 -6 13 -10
143 -10 350 l0 331 -81 0 -80 0 3 -342z"/>
<path d="M15600 485 l0 -425 80 0 80 0 0 183 0 182 108 -182 107 -183 93 0
c88 0 92 1 83 19 -6 10 -67 107 -136 215 -69 108 -125 200 -125 204 0 4 56 97
123 207 l123 200 -85 3 c-62 2 -88 -1 -94 -10 -5 -7 -51 -85 -103 -173 l-94
-160 0 173 0 172 -80 0 -80 0 0 -425z"/>
<path d="M16592 558 c3 -342 4 -354 25 -394 46 -86 105 -114 239 -114 133 0
197 32 238 120 20 43 21 63 24 393 l3 347 -75 0 -76 0 0 -307 c0 -175 -4 -324
-10 -344 -15 -55 -43 -74 -106 -74 -45 0 -58 4 -81 28 l-28 27 -3 335 -3 335
-75 0 -75 0 3 -352z"/>
<path d="M17340 485 l0 -425 70 0 70 0 0 288 0 287 96 -287 95 -288 95 0 94 0
0 425 0 425 -70 0 -70 0 0 -287 -1 -288 -34 110 c-18 61 -61 190 -95 288 l-62
177 -94 0 -94 0 0 -425z"/>
<path d="M18090 485 l0 -425 75 0 75 0 0 425 0 425 -75 0 -75 0 0 -425z"/>
<path d="M18360 903 c0 -5 202 -778 216 -825 5 -15 18 -18 85 -18 43 0 79 3
79 6 0 5 201 774 216 827 5 15 -3 17 -75 17 -45 0 -81 -3 -81 -6 0 -3 -27
-116 -59 -252 -33 -136 -62 -268 -66 -294 -4 -27 -11 -48 -15 -48 -4 0 -10 23
-13 50 -3 28 -34 163 -68 300 l-61 250 -79 0 c-43 0 -79 -3 -79 -7z"/>
<path d="M19070 485 l0 -425 215 0 215 0 0 65 0 65 -135 0 -135 0 0 125 0 125
110 0 110 0 0 60 0 60 -110 0 -110 0 0 110 0 110 135 0 135 0 0 65 0 65 -215
0 -215 0 0 -425z"/>
<path d="M19690 485 l0 -425 75 0 75 0 0 165 0 165 29 0 c27 0 32 -7 102 -165
l74 -165 88 0 c48 0 87 2 87 5 0 3 -39 83 -86 177 -78 156 -85 173 -69 183 45
26 74 59 95 107 19 44 22 65 18 137 -5 99 -28 155 -80 194 -54 40 -92 47 -254
47 l-154 0 0 -425z m291 282 c44 -33 59 -150 26 -201 -18 -27 -70 -46 -129
-46 l-38 0 0 130 0 130 63 0 c34 0 69 -6 78 -13z"/>
<path d="M20930 485 l0 -425 75 0 75 0 0 425 0 425 -75 0 -75 0 0 -425z"/>
<path d="M21210 845 l0 -65 90 0 90 0 0 -360 0 -360 75 0 75 0 0 360 0 360 90
0 90 0 0 65 0 65 -255 0 -255 0 0 -65z"/>
<path d="M21739 888 c5 -13 57 -126 115 -252 l106 -229 0 -174 0 -173 75 0 75
0 0 178 0 179 110 241 c61 132 110 243 110 246 0 3 -36 6 -79 6 l-79 0 -15
-37 c-9 -21 -41 -98 -70 -171 -55 -132 -55 -132 -66 -100 -6 18 -37 95 -68
171 l-58 137 -82 0 c-82 0 -82 0 -74 -22z"/>
</g>
</svg>
